<svg height="1052" width="744">
<polygon points=" 5.28571E+01, 2.55219E+02  5.28571E+01, 2.55219E+02  5.28678E+01, 2.55143E+02  5.28998E+01, 2.54915E+02  5.29530E+01, 2.54539E+02  5.30272E+01, 2.54019E+02  5.31223E+01, 2.53357E+02  5.32382E+01, 2.52557E+02  5.33748E+01, 2.51622E+02  5.35319E+01, 2.50555E+02  5.37094E+01, 2.49359E+02  5.39071E+01, 2.48038E+02  5.41250E+01, 2.46594E+02  5.43630E+01, 2.45032E+02  5.46208E+01, 2.43353E+02  5.48983E+01, 2.41561E+02  5.51955E+01, 2.39661E+02  5.55122E+01, 2.37653E+02  5.58483E+01, 2.35543E+02  5.62036E+01, 2.33333E+02  5.65780E+01, 2.31026E+02  5.69714E+01, 2.28625E+02  5.73837E+01, 2.26134E+02  5.78147E+01, 2.23556E+02  5.82643E+01, 2.20894E+02  5.87324E+01, 2.18151E+02  5.92188E+01, 2.15331E+02  5.97234E+01, 2.12436E+02  6.02461E+01, 2.09470E+02  6.07867E+01, 2.06437E+02  6.13452E+01, 2.03338E+02  6.19214E+01, 2.00178E+02  6.25152E+01, 1.96959E+02  6.31264E+01, 1.93686E+02  6.37549E+01, 1.90360E+02  6.44006E+01, 1.86986E+02  6.50634E+01, 1.83566E+02  6.57431E+01, 1.80103E+02  6.64396E+01, 1.76602E+02  6.71527E+01, 1.73064E+02  6.78824E+01, 1.69494E+02  6.86286E+01, 1.65894E+02  6.93910E+01, 1.62267E+02  7.01695E+01, 1.58618E+02  7.09641E+01, 1.54948E+02  7.17746E+01, 1.51262E+02  7.26009E+01, 1.47562E+02  7.34428E+01, 1.43851E+02  7.43002E+01, 1.40134E+02  7.51730E+01, 1.36412E+02  7.60611E+01, 1.32690E+02  7.69643E+01, 1.28969E+02  7.78825E+01, 1.25255E+02  7.88155E+01, 1.21549E+02  7.97633E+01, 1.17855E+02  8.07258E+01, 1.14177E+02  8.17027E+01, 1.10516E+02  8.26939E+01, 1.06878E+02  8.36994E+01, 1.03264E+02  8.47190E+01, 9.96777E+01  8.57526E+01, 9.61228E+01  8.68000E+01, 9.26023E+01  8.78611E+01, 8.91193E+01  8.89358E+01, 8.56771E+01  9.00240E+01, 8.22788E+01  9.11255E+01, 7.89276E+01  9.22401E+01, 7.56268E+01  9.33679E+01, 7.23795E+01  9.45086E+01, 6.91889E+01  9.56621E+01, 6.60582E+01  9.68283E+01, 6.29907E+01  9.80071E+01, 5.99894E+01  9.91983E+01, 5.70577E+01  1.00402E+02, 5.41987E+01  1.01617E+02, 5.14156E+01  1.02845E+02, 4.87117E+01  1.04085E+02, 4.60900E+01  1.05336E+02, 4.35538E+01  1.06599E+02, 4.11063E+01  1.07874E+02, 3.87507E+01  1.09160E+02, 3.64902E+01  1.10457E+02, 3.43280E+01  1.11765E+02, 3.22673E+01  1.13085E+02, 3.03112E+01  1.14415E+02, 2.84631E+01  1.15756E+02, 2.67260E+01  1.17108E+02, 2.51032E+01  1.18470E+02, 2.35978E+01  1.19843E+02, 2.22131E+01  1.21226E+02, 2.09523E+01  1.22618E+02, 1.98186E+01  1.24021E+02, 1.88151E+01  1.25434E+02, 1.79451E+01  1.26857E+02, 1.72117E+01  1.28289E+02, 1.66182E+01  1.29730E+02, 1.61677E+01  1.31181E+02, 1.58635E+01  1.32641E+02, 1.57087E+01  1.34110E+02, 1.57065E+01  1.35589E+02, 1.58602E+01  1.37076E+02, 1.61729E+01  1.38571E+02, 1.66479E+01  1.38571E+02, 1.66479E+01  1.40078E+02, 1.71851E+01  1.41597E+02, 1.76831E+01  1.43128E+02, 1.81431E+01  1.44670E+02, 1.85663E+01  1.46224E+02, 1.89536E+01  1.47790E+02, 1.93064E+01  1.49365E+02, 1.96256E+01  1.50951E+02, 1.99125E+01  1.52547E+02, 2.01681E+01  1.54153E+02, 2.03936E+01  1.55768E+02, 2.05902E+01  1.57391E+02, 2.07589E+01  1.59023E+02, 2.09009E+01  1.60663E+02, 2.10173E+01  1.62311E+02, 2.11093E+01  1.63966E+02, 2.11780E+01  1.65628E+02, 2.12245E+01  1.67296E+02, 2.12499E+01  1.68971E+02, 2.12555E+01  1.70651E+02, 2.12422E+01  1.72338E+02, 2.12113E+01  1.74029E+02, 2.11638E+01  1.75725E+02, 2.11010E+01  1.77425E+02, 2.10239E+01  1.79129E+02, 2.09336E+01  1.80837E+02, 2.08314E+01  1.82549E+02, 2.07183E+01  1.84263E+02, 2.05954E+01  1.85980E+02, 2.04640E+01  1.87699E+02, 2.03251E+01  1.89419E+02, 2.01798E+01  1.91141E+02, 2.00293E+01  1.92865E+02, 1.98747E+01  1.94588E+02, 1.97172E+01  1.96313E+02, 1.95579E+01  1.98037E+02, 1.93979E+01  1.99761E+02, 1.92383E+01  2.01484E+02, 1.90803E+01  2.03205E+02, 1.89251E+01  2.04926E+02, 1.87736E+01  2.06644E+02, 1.86272E+01  2.08360E+02, 1.84868E+01  2.10074E+02, 1.83537E+01  2.11784E+02, 1.82289E+01  2.13492E+02, 1.81136E+01  2.15195E+02, 1.80090E+01  2.16894E+02, 1.79161E+01  2.18589E+02, 1.78361E+01  2.20279E+02, 1.77701E+01  2.21964E+02, 1.77193E+01  2.23644E+02, 1.76848E+01  2.25317E+02, 1.76677E+01  2.26984E+02, 1.76691E+01  2.28644E+02, 1.76903E+01  2.30298E+02, 1.77322E+01  2.31944E+02, 1.77961E+01  2.33582E+02, 1.78830E+01  2.35212E+02, 1.79942E+01  2.36833E+02, 1.81307E+01  2.38446E+02, 1.82936E+01  2.40049E+02, 1.84842E+01  2.41643E+02, 1.87035E+01  2.43226E+02, 1.89526E+01  2.44800E+02, 1.92328E+01  2.46362E+02, 1.95450E+01  2.47914E+02, 1.98906E+01  2.49454E+02, 2.02705E+01  2.50982E+02, 2.06859E+01  2.52498E+02, 2.11380E+01  2.54001E+02, 2.16279E+01  2.55492E+02, 2.21567E+01  2.56969E+02, 2.27255E+01  2.58432E+02, 2.33355E+01  2.59882E+02, 2.39878E+01  2.61317E+02, 2.46836E+01  2.62737E+02, 2.54239E+01  2.64142E+02, 2.62099E+01  2.65532E+02, 2.70428E+01  2.66905E+02, 2.79236E+01  2.68263E+02, 2.88536E+01  2.69604E+02, 2.98337E+01  2.70927E+02, 3.08652E+01  2.72234E+02, 3.19493E+01  2.73522E+02, 3.30869E+01  2.74793E+02, 3.42793E+01  2.76045E+02, 3.55275E+01  2.77278E+02, 3.68328E+01  2.78492E+02, 3.81963E+01  2.79687E+02, 3.96190E+01  2.80861E+02, 4.11021E+01  2.82016E+02, 4.26468E+01  2.83149E+02, 4.42541E+01  2.84262E+02, 4.59253E+01  2.85353E+02, 4.76613E+01  2.86422E+02, 4.94635E+01  2.87469E+02, 5.13329E+01  2.88494E+02, 5.32705E+01  2.89495E+02, 5.52777E+01  2.90474E+02, 5.73554E+01  2.91429E+02, 5.95049E+01  2.91429E+02, 5.95050E+01  2.92461E+02, 6.16626E+01  2.93671E+02, 6.37643E+01  2.95054E+02, 6.58107E+01  2.96606E+02, 6.78027E+01  2.98324E+02, 6.97409E+01  3.00204E+02, 7.16260E+01  3.02242E+02, 7.34587E+01  3.04434E+02, 7.52397E+01  3.06777E+02, 7.69697E+01  3.09266E+02, 7.86493E+01  3.11898E+02, 8.02793E+01  3.14669E+02, 8.18604E+01  3.17575E+02, 8.33933E+01  3.20612E+02, 8.48786E+01  3.23777E+02, 8.63170E+01  3.27066E+02, 8.77093E+01  3.30475E+02, 8.90561E+01  3.34000E+02, 9.03582E+01  3.37637E+02, 9.16162E+01  3.41383E+02, 9.28307E+01  3.45233E+02, 9.40027E+01  3.49185E+02, 9.51326E+01  3.53234E+02, 9.62212E+01  3.57376E+02, 9.72693E+01  3.61607E+02, 9.82774E+01  3.65924E+02, 9.92463E+01  3.70324E+02, 1.00177E+02  3.74801E+02, 1.01069E+02  3.79352E+02, 1.01925E+02  3.83974E+02, 1.02744E+02  3.88663E+02, 1.03527E+02  3.93415E+02, 1.04275E+02  3.98225E+02, 1.04989E+02  4.03091E+02, 1.05669E+02  4.08009E+02, 1.06316E+02  4.12974E+02, 1.06931E+02  4.17983E+02, 1.07515E+02  4.23031E+02, 1.08067E+02  4.28117E+02, 1.08589E+02  4.33234E+02, 1.09082E+02  4.38381E+02, 1.09546E+02  4.43552E+02, 1.09982E+02  4.48744E+02, 1.10391E+02  4.53953E+02, 1.10772E+02  4.59176E+02, 1.11128E+02  4.64408E+02, 1.11458E+02  4.69646E+02, 1.11764E+02  4.74886E+02, 1.12046E+02  4.80124E+02, 1.12305E+02  4.85357E+02, 1.12541E+02  4.90580E+02, 1.12755E+02  4.95790E+02, 1.12948E+02  5.00983E+02, 1.13121E+02  5.06155E+02, 1.13273E+02  5.11303E+02, 1.13407E+02  5.16422E+02, 1.13522E+02  5.21508E+02, 1.13620E+02  5.26559E+02, 1.13701E+02  5.31570E+02, 1.13765E+02  5.36537E+02, 1.13814E+02  5.41457E+02, 1.13847E+02  5.46325E+02, 1.13867E+02  5.51138E+02, 1.13873E+02  5.55893E+02, 1.13866E+02  5.60584E+02, 1.13847E+02  5.65209E+02, 1.13817E+02  5.69764E+02, 1.13776E+02  5.74245E+02, 1.13725E+02  5.78647E+02, 1.13664E+02  5.82968E+02, 1.13595E+02  5.87204E+02, 1.13518E+02  5.91350E+02, 1.13433E+02  5.95403E+02, 1.13342E+02  5.99359E+02, 1.13246E+02  6.03214E+02, 1.13143E+02  6.06965E+02, 1.13037E+02  6.10607E+02, 1.12926E+02  6.14137E+02, 1.12813E+02  6.17551E+02, 1.12697E+02  6.20846E+02, 1.12579E+02  6.24016E+02, 1.12461E+02  6.27060E+02, 1.12342E+02  6.29972E+02, 1.12223E+02  6.32749E+02, 1.12105E+02  6.35387E+02, 1.11990E+02  6.37883E+02, 1.11876E+02  6.40232E+02, 1.11766E+02  6.42431E+02, 1.11659E+02  6.44476E+02, 1.11557E+02  6.46363E+02, 1.11461E+02  6.48088E+02, 1.11370E+02  6.49648E+02, 1.11286E+02  6.51039E+02, 1.11209E+02  6.52256E+02, 1.11140E+02  6.53297E+02, 1.11080E+02  6.54157E+02, 1.11029E+02  6.54833E+02, 1.10988E+02  6.55320E+02, 1.10958E+02  6.55615E+02, 1.10940E+02  6.55714E+02, 1.10934E+02  6.55714E+02, 1.10934E+02  6.55650E+02, 1.10931E+02  6.55457E+02, 1.10923E+02  6.55138E+02, 1.10909E+02  6.54697E+02, 1.10889E+02  6.54134E+02, 1.10862E+02  6.53452E+02, 1.10829E+02  6.52655E+02, 1.10788E+02  6.51743E+02, 1.10741E+02  6.50719E+02, 1.10685E+02  6.49586E+02, 1.10621E+02  6.48345E+02, 1.10548E+02  6.47000E+02, 1.10467E+02  6.45553E+02, 1.10377E+02  6.44005E+02, 1.10277E+02  6.42359E+02, 1.10167E+02  6.40618E+02, 1.10047E+02  6.38783E+02, 1.09917E+02  6.36857E+02, 1.09776E+02  6.34843E+02, 1.09623E+02  6.32743E+02, 1.09459E+02  6.30558E+02, 1.09284E+02  6.28292E+02, 1.09096E+02  6.25947E+02, 1.08895E+02  6.23524E+02, 1.08682E+02  6.21027E+02, 1.08456E+02  6.18457E+02, 1.08216E+02  6.15817E+02, 1.07962E+02  6.13110E+02, 1.07695E+02  6.10336E+02, 1.07412E+02  6.07500E+02, 1.07115E+02  6.04603E+02, 1.06803E+02  6.01647E+02, 1.06475E+02  5.98635E+02, 1.06131E+02  5.95569E+02, 1.05771E+02  5.92452E+02, 1.05395E+02  5.89285E+02, 1.05002E+02  5.86071E+02, 1.04591E+02  5.82813E+02, 1.04163E+02  5.79512E+02, 1.03718E+02  5.76172E+02, 1.03254E+02  5.72793E+02, 1.02771E+02  5.69379E+02, 1.02270E+02  5.65932E+02, 1.01749E+02  5.62455E+02, 1.01209E+02  5.58948E+02, 1.00650E+02  5.55416E+02, 1.00069E+02  5.51860E+02, 9.94689E+01  5.48282E+02, 9.88475E+01  5.44685E+02, 9.82049E+01  5.41072E+02, 9.75408E+01  5.37443E+02, 9.68548E+01  5.33803E+02, 9.61466E+01  5.30152E+02, 9.54159E+01  5.26494E+02, 9.46623E+01  5.22830E+02, 9.38856E+01  5.19164E+02, 9.30853E+01  5.15497E+02, 9.22612E+01  5.11831E+02, 9.14128E+01  5.08170E+02, 9.05399E+01  5.04514E+02, 8.96422E+01  5.00868E+02, 8.87193E+01  4.97232E+02, 8.77708E+01  4.93609E+02, 8.67964E+01  4.90002E+02, 8.57959E+01  4.86413E+02, 8.47688E+01  4.82843E+02, 8.37149E+01  4.79297E+02, 8.26337E+01  4.75775E+02, 8.15250E+01  4.72280E+02, 8.03884E+01  4.68814E+02, 7.92236E+01  4.65381E+02, 7.80303E+01  4.61981E+02, 7.68081E+01  4.58618E+02, 7.55567E+01  4.55293E+02, 7.42758E+01  4.52009E+02, 7.29649E+01  4.48769E+02, 7.16239E+01  4.45574E+02, 7.02523E+01  4.42427E+02, 6.88498E+01  4.39330E+02, 6.74161E+01  4.36286E+02, 6.59508E+01  4.33297E+02, 6.44537E+01  4.30364E+02, 6.29243E+01  4.27492E+02, 6.13624E+01  4.24681E+02, 5.97676E+01  4.21934E+02, 5.81396E+01  4.19254E+02, 5.64780E+01  4.16642E+02, 5.47825E+01  4.14102E+02, 5.30528E+01  4.11634E+02, 5.12886E+01  4.09243E+02, 4.94894E+01  4.06930E+02, 4.76550E+01  4.04696E+02, 4.57851E+01  4.02546E+02, 4.38793E+01  4.00480E+02, 4.19372E+01  3.98502E+02, 3.99585E+01  3.96613E+02, 3.79430E+01  3.94816E+02, 3.58902E+01  3.93114E+02, 3.37999E+01  3.91507E+02, 3.16717E+01  3.90000E+02, 2.95052E+01  3.90000E+02, 2.95050E+01  3.88565E+02, 2.73062E+01  3.87172E+02, 2.50818E+01  3.85823E+02, 2.28327E+01  3.84515E+02, 2.05599E+01  3.83249E+02, 1.82645E+01  3.82023E+02, 1.59473E+01  3.80838E+02, 1.36094E+01  3.79692E+02, 1.12517E+01  3.78585E+02, 8.87515E+00  3.77517E+02, 6.48076E+00  3.76487E+02, 4.06947E+00  3.75494E+02, 1.64227E+00  3.74538E+02,-7.99874E-01  3.73617E+02,-3.25600E+00  3.72733E+02,-5.72514E+00  3.71883E+02,-8.20632E+00  3.71068E+02,-1.06986E+01  3.70287E+02,-1.32009E+01  3.69538E+02,-1.57124E+01  3.68823E+02,-1.82321E+01  3.68139E+02,-2.07590E+01  3.67487E+02,-2.32921E+01  3.66866E+02,-2.58304E+01  3.66275E+02,-2.83731E+01  3.65714E+02,-3.09191E+01  3.65182E+02,-3.34674E+01  3.64679E+02,-3.60171E+01  3.64204E+02,-3.85673E+01  3.63756E+02,-4.11169E+01  3.63334E+02,-4.36650E+01  3.62939E+02,-4.62106E+01  3.62570E+02,-4.87527E+01  3.62226E+02,-5.12904E+01  3.61906E+02,-5.38227E+01  3.61610E+02,-5.63487E+01  3.61337E+02,-5.88673E+01  3.61088E+02,-6.13777E+01  3.60860E+02,-6.38787E+01  3.60654E+02,-6.63696E+01  3.60469E+02,-6.88492E+01  3.60304E+02,-7.13167E+01  3.60159E+02,-7.37710E+01  3.60033E+02,-7.62112E+01  3.59926E+02,-7.86364E+01  3.59837E+02,-8.10455E+01  3.59766E+02,-8.34375E+01  3.59711E+02,-8.58116E+01  3.59673E+02,-8.81668E+01  3.59650E+02,-9.05020E+01  3.59643E+02,-9.28163E+01  3.59650E+02,-9.51088E+01  3.59671E+02,-9.73785E+01  3.59706E+02,-9.96244E+01  3.59753E+02,-1.01845E+02  3.59813E+02,-1.04041E+02  3.59884E+02,-1.06209E+02  3.59967E+02,-1.08350E+02  3.60059E+02,-1.10463E+02  3.60162E+02,-1.12546E+02  3.60274E+02,-1.14598E+02  3.60395E+02,-1.16618E+02  3.60524E+02,-1.18607E+02  3.60661E+02,-1.20561E+02  3.60804E+02,-1.22481E+02  3.60954E+02,-1.24366E+02  3.61110E+02,-1.26215E+02  3.61271E+02,-1.28026E+02  3.61437E+02,-1.29798E+02  3.61607E+02,-1.31532E+02  3.61780E+02,-1.33225E+02  3.61956E+02,-1.34877E+02  3.62135E+02,-1.36487E+02  3.62315E+02,-1.38053E+02  3.62497E+02,-1.39576E+02  3.62679E+02,-1.41053E+02  3.62861E+02,-1.42484E+02  3.63042E+02,-1.43868E+02  3.63222E+02,-1.45205E+02  3.63401E+02,-1.46492E+02  3.63577E+02,-1.47729E+02  3.63750E+02,-1.48916E+02  3.63920E+02,-1.50050E+02  3.64086E+02,-1.51132E+02  3.64247E+02,-1.52160E+02  3.64403E+02,-1.53133E+02  3.64553E+02,-1.54050E+02  3.64696E+02,-1.54910E+02  3.64833E+02,-1.55713E+02  3.64962E+02,-1.56457E+02  3.65083E+02,-1.57142E+02  3.65195E+02,-1.57766E+02  3.65298E+02,-1.58328E+02  3.65391E+02,-1.58828E+02  3.65473E+02,-1.59265E+02  3.65544E+02,-1.59637E+02  3.65604E+02,-1.59943E+02  3.65651E+02,-1.60183E+02  3.65686E+02,-1.60356E+02  3.65707E+02,-1.60460E+02  3.65714E+02,-1.60495E+02 " style="fill:none;stroke:#000000;stroke-width:1px;stroke-linecap:butt;stroke-linejoin:miter;stroke-opacity:1" />
</svg>
